<svg xmlns="http://www.w3.org/2000/svg" viewBox="0 0 512 512">
  <rect width="512" height="512" fill="#3b82f6" rx="15%" />
  <g fill="#ffffff">
    <path d="M256 128c-70.7 0-128 57.3-128 128s57.3 128 128 128 128-57.3 128-128-57.3-128-128-128zm0 32c53 0 96 43 96 96s-43 96-96 96-96-43-96-96 43-96 96-96z"/>
    <path d="M256 192a64 64 0 1 0 0 128 64 64 0 0 0 0-128zm0 32a32 32 0 1 1 0 64 32 32 0 0 1 0-64z"/>
    <path d="M256 96c-8.8 0-16-7.2-16-16V48c0-8.8 7.2-16 16-16s16 7.2 16 16v32c0 8.8-7.2 16-16 16zM256 480c-8.8 0-16-7.2-16-16v-32c0-8.8 7.2-16 16-16s16 7.2 16 16v32c0 8.8-7.2 16-16 16zM464 256c0 8.8-7.2 16-16 16h-32c-8.8 0-16-7.2-16-16s7.2-16 16-16h32c8.8 0 16 7.2 16 16zM112 256c0 8.8-7.2 16-16 16H64c-8.8 0-16-7.2-16-16s7.2-16 16-16h32c8.8 0 16 7.2 16 16zM382.6 382.6c-6.2 6.2-16.4 6.2-22.6 0l-22.6-22.6c-6.2-6.2-6.2-16.4 0-22.6s16.4-6.2 22.6 0l22.6 22.6c6.2 6.2 6.2 16.4 0 22.6zM174.6 174.6c-6.2 6.2-16.4 6.2-22.6 0l-22.6-22.6c-6.2-6.2-6.2-16.4 0-22.6s16.4-6.2 22.6 0l22.6 22.6c6.2 6.2 6.2 16.4 0 22.6zM382.6 129.4c6.2 6.2 6.2 16.4 0 22.6l-22.6 22.6c-6.2 6.2-16.4 6.2-22.6 0s-6.2-16.4 0-22.6l22.6-22.6c6.2-6.2 16.4-6.2 22.6 0zM174.6 337.4c6.2 6.2 6.2 16.4 0 22.6l-22.6 22.6c-6.2 6.2-16.4 6.2-22.6 0s-6.2-16.4 0-22.6l22.6-22.6c6.2-6.2 16.4-6.2 22.6 0z"/>
    <path d="M350 256l-58 58-58-58 58-58z" />
  </g>
</svg>
